{
	"asset":{
		"generator":"Khronos glTF Blender I/O v4.5.47",
		"version":"2.0"
	},
	"scene":0,
	"scenes":[
		{
			"name":"Scene",
			"nodes":[
				2
			]
		}
	],
	"nodes":[
		{
			"mesh":0,
			"name":"_0",
			"scale":[
				10,
				10,
				10.000000953674316
			]
		},
		{
			"mesh":1,
			"name":"_1",
			"scale":[
				10,
				10,
				10.000000953674316
			]
		},
		{
			"children":[
				0,
				1
			],
			"name":"Node_0"
		}
	],
	"materials":[
		{
			"doubleSided":true,
			"name":"#512108",
			"pbrMetallicRoughness":{
				"baseColorFactor":[
					0.31854677200317383,
					0.13286831974983215,
					0.03310476616024971,
					1
				],
				"metallicFactor":0
			}
		},
		{
			"doubleSided":true,
			"name":"#FF9951",
			"pbrMetallicRoughness":{
				"baseColorFactor":[
					1,
					0.6038273572921753,
					0.31854677200317383,
					1
				],
				"metallicFactor":0
			}
		},
		{
			"doubleSided":true,
			"name":"#000001",
			"pbrMetallicRoughness":{
				"baseColorFactor":[
					0,
					0,
					0.005605391692370176,
					1
				],
				"metallicFactor":0
			}
		}
	],
	"meshes":[
		{
			"name":"_0",
			"primitives":[
				{
					"attributes":{
						"POSITION":0,
						"NORMAL":1
					},
					"indices":2,
					"material":0
				},
				{
					"attributes":{
						"POSITION":3,
						"NORMAL":4
					},
					"indices":5,
					"material":1
				},
				{
					"attributes":{
						"POSITION":6,
						"NORMAL":7
					},
					"indices":8,
					"material":2
				}
			]
		},
		{
			"name":"_1",
			"primitives":[
				{
					"attributes":{
						"POSITION":9,
						"NORMAL":10
					},
					"indices":11,
					"material":0
				},
				{
					"attributes":{
						"POSITION":12,
						"NORMAL":13
					},
					"indices":14,
					"material":1
				},
				{
					"attributes":{
						"POSITION":15,
						"NORMAL":16
					},
					"indices":17,
					"material":2
				}
			]
		}
	],
	"accessors":[
		{
			"bufferView":0,
			"componentType":5126,
			"count":2132,
			"max":[
				0.012000000104308128,
				0.012000000104308128,
				0.007499999832361937
			],
			"min":[
				-0.012000000104308128,
				-0.0044999998062849045,
				-0.006000000052154064
			],
			"type":"VEC3"
		},
		{
			"bufferView":1,
			"componentType":5126,
			"count":2132,
			"type":"VEC3"
		},
		{
			"bufferView":2,
			"componentType":5123,
			"count":5568,
			"type":"SCALAR"
		},
		{
			"bufferView":3,
			"componentType":5126,
			"count":436,
			"max":[
				0.006000000052154064,
				0.0044999998062849045,
				0.007499999832361937
			],
			"min":[
				-0.006000000052154064,
				-0.010499999858438969,
				-0.0044999998062849045
			],
			"type":"VEC3"
		},
		{
			"bufferView":4,
			"componentType":5126,
			"count":436,
			"type":"VEC3"
		},
		{
			"bufferView":5,
			"componentType":5123,
			"count":1020,
			"type":"SCALAR"
		},
		{
			"bufferView":6,
			"componentType":5126,
			"count":571,
			"max":[
				0.007499999832361937,
				0.006000000052154064,
				0.007499999832361937
			],
			"min":[
				-0.010499999858438969,
				-0.012000000104308128,
				-0.003000000026077032
			],
			"type":"VEC3"
		},
		{
			"bufferView":7,
			"componentType":5126,
			"count":571,
			"type":"VEC3"
		},
		{
			"bufferView":8,
			"componentType":5123,
			"count":1296,
			"type":"SCALAR"
		},
		{
			"bufferView":9,
			"componentType":5126,
			"count":2132,
			"max":[
				0.012000000104308128,
				0.012000000104308128,
				0.007499999832361937
			],
			"min":[
				-0.012000000104308128,
				-0.0044999998062849045,
				-0.006000000052154064
			],
			"type":"VEC3"
		},
		{
			"bufferView":10,
			"componentType":5126,
			"count":2132,
			"type":"VEC3"
		},
		{
			"bufferView":11,
			"componentType":5123,
			"count":5568,
			"type":"SCALAR"
		},
		{
			"bufferView":12,
			"componentType":5126,
			"count":436,
			"max":[
				0.006000000052154064,
				0.0044999998062849045,
				0.007499999832361937
			],
			"min":[
				-0.006000000052154064,
				-0.010499999858438969,
				-0.0044999998062849045
			],
			"type":"VEC3"
		},
		{
			"bufferView":13,
			"componentType":5126,
			"count":436,
			"type":"VEC3"
		},
		{
			"bufferView":14,
			"componentType":5123,
			"count":1020,
			"type":"SCALAR"
		},
		{
			"bufferView":15,
			"componentType":5126,
			"count":571,
			"max":[
				0.010499999858438969,
				0.006000000052154064,
				0.007499999832361937
			],
			"min":[
				-0.007499999832361937,
				-0.012000000104308128,
				-0.003000000026077032
			],
			"type":"VEC3"
		},
		{
			"bufferView":16,
			"componentType":5126,
			"count":571,
			"type":"VEC3"
		},
		{
			"bufferView":17,
			"componentType":5123,
			"count":1296,
			"type":"SCALAR"
		}
	],
	"bufferViews":[
		{
			"buffer":0,
			"byteLength":25584,
			"byteOffset":0,
			"target":34962
		},
		{
			"buffer":0,
			"byteLength":25584,
			"byteOffset":25584,
			"target":34962
		},
		{
			"buffer":0,
			"byteLength":11136,
			"byteOffset":51168,
			"target":34963
		},
		{
			"buffer":0,
			"byteLength":5232,
			"byteOffset":62304,
			"target":34962
		},
		{
			"buffer":0,
			"byteLength":5232,
			"byteOffset":67536,
			"target":34962
		},
		{
			"buffer":0,
			"byteLength":2040,
			"byteOffset":72768,
			"target":34963
		},
		{
			"buffer":0,
			"byteLength":6852,
			"byteOffset":74808,
			"target":34962
		},
		{
			"buffer":0,
			"byteLength":6852,
			"byteOffset":81660,
			"target":34962
		},
		{
			"buffer":0,
			"byteLength":2592,
			"byteOffset":88512,
			"target":34963
		},
		{
			"buffer":0,
			"byteLength":25584,
			"byteOffset":91104,
			"target":34962
		},
		{
			"buffer":0,
			"byteLength":25584,
			"byteOffset":116688,
			"target":34962
		},
		{
			"buffer":0,
			"byteLength":11136,
			"byteOffset":142272,
			"target":34963
		},
		{
			"buffer":0,
			"byteLength":5232,
			"byteOffset":153408,
			"target":34962
		},
		{
			"buffer":0,
			"byteLength":5232,
			"byteOffset":158640,
			"target":34962
		},
		{
			"buffer":0,
			"byteLength":2040,
			"byteOffset":163872,
			"target":34963
		},
		{
			"buffer":0,
			"byteLength":6852,
			"byteOffset":165912,
			"target":34962
		},
		{
			"buffer":0,
			"byteLength":6852,
			"byteOffset":172764,
			"target":34962
		},
		{
			"buffer":0,
			"byteLength":2592,
			"byteOffset":179616,
			"target":34963
		}
	],
	"buffers":[
		{
			"byteLength":182208,
			"uri":"Untitled.bin"
		}
	]
}
